{"asset":{"version":"2.0","generator":"VECTARY"},"nodes":[{"translation":[0,0,0],"rotation":[-0.7071067811865475,0,0,0.7071067811865476],"scale":[0.001,0.001,0.001],"name":"trunk","mesh":0},{"translation":[0.0037274782750892294,-0.004437178463288263,-8.881784197001253e-19],"rotation":[-0.7071067811865475,0,0,0.7071067811865476],"scale":[0.001,0.001,0.001],"name":"leaves 2","mesh":1},{"translation":[0.00478810143079744,0.014040168593880747,-0.012076561971826043],"rotation":[-0.5443642593320158,0,0,0.8388489453780732],"scale":[0.001,0.001,0.001],"name":"leaves 3","mesh":2},{"translation":[0,0,0],"rotation":[-0.7071067811865475,0,0,0.7071067811865476],"scale":[0.001,0.001,0.001],"name":"leaves 3","mesh":3}],"meshes":[{"primitives":[{"mode":4,"attributes":{"POSITION":0,"NORMAL":2},"material":0,"indices":1}]},{"primitives":[{"mode":4,"attributes":{"POSITION":3,"NORMAL":5},"material":1,"indices":4}]},{"primitives":[{"mode":4,"attributes":{"POSITION":6,"NORMAL":8},"material":2,"indices":7}]},{"primitives":[{"mode":4,"attributes":{"POSITION":9,"NORMAL":11},"material":3,"indices":10}]}],"accessors":[{"bufferView":0,"byteOffset":0,"componentType":5126,"count":420,"max":[10000000,10000000,10000000],"min":[-10000000,-10000000,-10000000],"type":"VEC3"},{"bufferView":1,"byteOffset":0,"componentType":5125,"count":420,"max":[420],"min":[0],"type":"SCALAR"},{"bufferView":2,"byteOffset":0,"componentType":5126,"count":420,"max":[1,1,1],"min":[-1,-1,-1],"type":"VEC3"},{"bufferView":3,"byteOffset":0,"componentType":5126,"count":60,"max":[10000000,10000000,10000000],"min":[-10000000,-10000000,-10000000],"type":"VEC3"},{"bufferView":4,"byteOffset":0,"componentType":5125,"count":60,"max":[60],"min":[0],"type":"SCALAR"},{"bufferView":5,"byteOffset":0,"componentType":5126,"count":60,"max":[1,1,1],"min":[-1,-1,-1],"type":"VEC3"},{"bufferView":6,"byteOffset":0,"componentType":5126,"count":90,"max":[10000000,10000000,10000000],"min":[-10000000,-10000000,-10000000],"type":"VEC3"},{"bufferView":7,"byteOffset":0,"componentType":5125,"count":90,"max":[90],"min":[0],"type":"SCALAR"},{"bufferView":8,"byteOffset":0,"componentType":5126,"count":90,"max":[1,1,1],"min":[-1,-1,-1],"type":"VEC3"},{"bufferView":9,"byteOffset":0,"componentType":5126,"count":60,"max":[10000000,10000000,10000000],"min":[-10000000,-10000000,-10000000],"type":"VEC3"},{"bufferView":10,"byteOffset":0,"componentType":5125,"count":60,"max":[60],"min":[0],"type":"SCALAR"},{"bufferView":11,"byteOffset":0,"componentType":5126,"count":60,"max":[1,1,1],"min":[-1,-1,-1],"type":"VEC3"}],"bufferViews":[{"buffer":0,"byteOffset":0,"byteLength":5040,"target":34962},{"buffer":0,"byteOffset":5040,"byteLength":1680,"target":34963},{"buffer":0,"byteOffset":6720,"byteLength":5040,"target":34962},{"buffer":0,"byteOffset":11760,"byteLength":720,"target":34962},{"buffer":0,"byteOffset":12480,"byteLength":240,"target":34963},{"buffer":0,"byteOffset":12720,"byteLength":720,"target":34962},{"buffer":0,"byteOffset":13440,"byteLength":1080,"target":34962},{"buffer":0,"byteOffset":14520,"byteLength":360,"target":34963},{"buffer":0,"byteOffset":14880,"byteLength":1080,"target":34962},{"buffer":0,"byteOffset":15960,"byteLength":720,"target":34962},{"buffer":0,"byteOffset":16680,"byteLength":240,"target":34963},{"buffer":0,"byteOffset":16920,"byteLength":720,"target":34962}],"materials":[{"pbrMetallicRoughness":{"baseColorFactor":[1,0.5882352941176471,0.12156862745098039,1],"roughnessFactor":0.9,"metallicFactor":0.5},"alphaMode":"BLEND","name":""},{"pbrMetallicRoughness":{"baseColorFactor":[1,0.5882352941176471,0.12156862745098039,1],"roughnessFactor":0.9,"metallicFactor":0.5},"alphaMode":"BLEND","name":""},{"pbrMetallicRoughness":{"baseColorFactor":[1,0.5882352941176471,0.12156862745098039,1],"roughnessFactor":0.9,"metallicFactor":0.5},"alphaMode":"BLEND","name":""},{"pbrMetallicRoughness":{"baseColorFactor":[1,0.5882352941176471,0.12156862745098039,1],"roughnessFactor":0.9,"metallicFactor":0.5},"alphaMode":"BLEND","name":""}],"scenes":[{"nodes":[0,1,2,3],"name":"Tree"}],"buffers":[{"byteLength":17640,"uri":"Tree.bin"}]}